<svg xmlns="http://www.w3.org/2000/svg" width="440" height="330" viewBox="0 0 440 330" role="img" aria-labelledby="workshop-title workshop-desc">
  <title id="workshop-title">Small woodworking workshop</title>
  <desc id="workshop-desc">A roughly drawn woodworking business with a sawtooth roof, window panes, timber shelving, hanging tools and a broad workbench across the open working bay. No photograph or person is included.</desc>
  <!-- The business is entirely illustrated. The former 320x180 footage bay
       now contains a paper-backed workshop interior. Exterior canvas is transparent. -->
  <g id="workshop-paper" fill="#F5F0E6" fill-opacity=".58">
    <path d="M17 89 112 33 114 87 242 31 245 87 373 35 376 89 413 91 414 305 16 305Z M35 115H355V295H35Z" fill-rule="evenodd"/>
    <path d="m25 91 78-47 2 47Zm102-1 106-48 1 48Zm130 1 107-47 2 48Z" fill="#FBF8F1" fill-opacity=".72"/>
  </g>
  <g id="workshop-interior">
    <rect x="35" y="115" width="320" height="180" fill="#F5F0E6"/>
    <g id="workshop-interior-window" fill="none" stroke="#586D74" stroke-linecap="round" stroke-linejoin="round">
      <path d="m57 132 84 1-1 65-82-1Z" fill="#FBF8F1" stroke="none"/>
      <path d="m57 133 38-1m7 1 37 1 1 61m-5 3-76-1-1-53" stroke-width="1.7"/>
      <path d="m62 138 32 1m9-1 31 1m-70 26 69 1m-36-26 1 54m-34-51-1 49m69-48 1 48" stroke-width="1.15"/>
      <path d="m53 202 94-1m-88 5 31 1m41-2 12 1" stroke-width="1.2"/>
    </g>
    <g id="workshop-timber-and-tools" fill="none" stroke="#586D74" stroke-linecap="round" stroke-linejoin="round">
      <!-- Timber stock on one shelf; a square and hand saw hang below. -->
      <path d="m163 160 70 1m8-1 91 1m-166 4 162 1m-149 3 1 10m130-10-1 10" stroke-width="1.55"/>
      <path d="m172 154 119-1 1 5m-111-9 128 1m-116-6 110 1m-8-5 19 1 1 10" stroke-width="1.15"/>
      <path d="m168 186 69 1m9-1 79 1m-145 0-1 8m43-7 1 7m56-7 1 8" stroke-width="1.15"/>
      <path d="m177 196-1 24 18 1m-14-22 1 17 12 1" stroke="#173530" stroke-width="1.6"/>
      <path d="m216 196 9-1 2 10-9 1Zm12 4 46 10-5 9-41-14m5 1 2 4m5-2 2 4m5-2 2 4m5-2 2 4" stroke="#173530" stroke-width="1.3"/>
      <path d="m282 199 8 1m-5-3 1 22m-3 1 7 0" stroke-width="1.5"/>
    </g>
    <g id="workshop-main-workbench" stroke="#173530" stroke-linecap="round" stroke-linejoin="round">
      <path d="m59 234 254 1 20 13-282 1Z" fill="#FBF8F1" stroke="none"/>
      <g fill="none">
        <path d="m58 234 112 1m9 0 133 0 19 12m-6 3-155-1m-10 0-109 1 7-10" stroke-width="2.1"/>
        <path d="m53 254 107 1m10-1 157 0m-264 3 2 32m7-32 1 31m230-32-1 33m10-32 1 32" stroke-width="2"/>
        <path d="m75 279 98 1m9-1 116 1m-223-5 47-16m138 1 35 15" stroke="#586D74" stroke-width="1.2"/>
        <path d="m83 229 105-1 13 6m-112-9 89 1m-13 11 36 0m-130 18-7 7m255-7 5 7" stroke-width="1.2"/>
        <path d="m105 241 50 1m80-1 60 0m-213 50 48 1m158-1 29 0" stroke="#586D74" stroke-width=".9"/>
      </g>
    </g>
    <path d="m42 289 17 0m25 6 42-1m92 0 31-1m88-5 10-1" fill="none" stroke="#586D74" stroke-width=".9" stroke-linecap="round"/>
  </g>
  <g id="workshop-roof" fill="none" stroke="#173530" stroke-linecap="round" stroke-linejoin="round">
    <path d="m15 90 54-32 40-24m5 1 1 48m5 3 64-28 57-27m3 5 1 48m6 2 65-29 56-22m3 6 1 45 36 4" stroke-width="2.5"/>
    <path d="m19 94 48-29m20-13 19-11m18 41 48-20m36-12 28-13m15 52 45-20m42-20 27-12" stroke="#586D74" stroke-width="1.1"/>
    <path d="m109 47 1 27m130-32 1 30m131-27 1 29M21 97l79 1m16-1 116 1m16 1 95-1m12 1 51 1" stroke-width="1.45"/>
    <!-- Broken clerestory mullions distinguish a working roof from a card edge. -->
    <path d="m51 78 1 11m24-25 1 24m63-9 1 11m29-26 1 24m31-38 1 36m73-5 1 8m29-23 1 22m32-35 1 34" stroke="#586D74" stroke-width="1.3"/>
    <path d="m99 62 6-4m123 10 7-4m125-4 7-4" stroke="#586D74" stroke-width=".9"/>
  </g>
  <g id="workshop-walls" fill="none" stroke="#173530" stroke-linecap="round" stroke-linejoin="round">
    <path d="m17 99-1 68 1 52m-1 14 1 70 90 1m12 0 125 1m14 0 91-1m12 1 53-1-1-55m1-13-1-75m0-15-1-41" stroke-width="2.3"/>
    <path d="m21 111 1 42m-1 84 1 51m387-165 1 51m-1 84 1 34M30 309l57-1m224 1 80-1" stroke="#586D74" stroke-width="1.05"/>
    <!-- Bay structure encloses the illustrated workshop interior. -->
    <path d="m31 110 76 1m8-1 133 1m10-1 102 1M30 117l1 70m0 9-1 95m329-175 1 78m0 11-1 88M33 299l110 1m13-1 104 1m11-1 85 1" stroke-width="2"/>
    <path d="m27 112 1 45m336-44 21 1m6 123 1 44m-288 21 39 1" stroke="#586D74" stroke-width="1"/>
    <path d="m18 185 8 1m-7 4 8 1m-7 81 7-2m377-64 7 1m-9 4 7 1m-7 70 6-1" stroke="#586D74" stroke-width=".95"/>
  </g>
  <g id="workshop-side-window" fill="none" stroke="#586D74" stroke-linecap="round" stroke-linejoin="round">
    <path d="m369 117 32 1 1 71m-5 3-28-1-1-66" stroke-width="1.7"/>
    <path d="m373 123 24 1m-24 4 1 53m23-54-1 54m-23-29 24 1m-13-29 1 26m0 5-1 27" stroke-width="1.05"/>
    <!-- A visible bench and short stock lengths behind the side window. -->
    <path d="m373 176 24 1m-22 3 1 9m18-9-1 9m-18-18 14 1m-12-5 11 1m3-7 4 9" stroke="#173530" stroke-width="1.4"/>
    <path d="m366 196 39-1m-3 4-15 1" stroke-width="1.1"/>
  </g>
  <g id="workshop-side-details" fill="none" stroke="#586D74" stroke-linecap="round" stroke-linejoin="round">
    <!-- Narrow service door; the broad working bay remains the primary opening. -->
    <path d="m370 299-1-74 31 1 1 71m-29-77 25 1m-3 41 3 0" stroke-width="1.4"/>
    <path d="m375 229 1 29m0 9 1 24m20-12 1 13m-24-56 21 1" stroke-width=".85"/>
    <path d="m367 207 36 1m-34 5 26 1m-2-7 1 7" stroke-width="1.1"/>
    <!-- Short pressure marks at the foundation, not a uniform hatch texture. -->
    <path d="m20 298 6-8m-4 12 6-7m336 9 4-8m5 7 3-5m30 6 5-9" stroke-width="1"/>
  </g>
  <rect id="workshop-interior-bounds" x="35" y="115" width="320" height="180" fill="none" stroke="none"/>
</svg>
