<svg xmlns="http://www.w3.org/2000/svg" viewBox="-65 -115 135 160" width="135" height="160">
        <path class="m-ink" stroke="#173530" stroke-width="3" fill="none" stroke-linecap="round" stroke-linejoin="round" d="M-25-51C-39-78-27-103-4-105C22-108 37-87 27-64C23-52 14-43 0-43C-12-42-20-46-25-51M-58 33L-55-5C-47-29-27-31-20-33M18-33C45-34 59-14 61 17L61 32M-36 5L-36 33M36 3L36 31"/>
        <path class="m-light" stroke="#586D74" stroke-width="1.3" fill="none" stroke-linecap="round" stroke-linejoin="round" d="M-29-85C-19-108 11-112 28-94M-60 39L-13 39M22 39L64 39"/></svg>
